<?xml version="1.0"?>
<svg width="24" height="24" xmlns="http://www.w3.org/2000/svg" xmlns:svg="http://www.w3.org/2000/svg">
 <g class="layer">
  <title>Layer 1</title>
  <path d="m16.26,15.33l-0.44,0c2.2,-1.32 3.68,-3.73 3.68,-6.48c0,-3.81 -2.82,-6.95 -6.48,-7.48l0,-1.22l-2.16,0l0,1.22c-3.66,0.53 -6.48,3.66 -6.48,7.48c0,2.76 1.48,5.17 3.68,6.48l-0.44,0c-2.39,0 -4.32,1.93 -4.32,4.32s1.93,4.32 4.32,4.32l8.65,0c2.39,0 4.32,-1.93 4.32,-4.32s-1.93,-4.32 -4.32,-4.32m1.62,-4.32c0,0.9 -0.72,1.62 -1.62,1.62s-1.62,-0.72 -1.62,-1.62s0.72,-1.62 1.62,-1.62s1.62,0.72 1.62,1.62m-2.7,-6.48c1.2,0 2.16,0.97 2.16,2.16s-0.96,2.16 -2.16,2.16s-2.16,-0.96 -2.16,-2.16s0.97,-2.16 2.16,-2.16m-6.48,0c1.2,0 2.16,0.97 2.16,2.16s-0.96,2.16 -2.16,2.16s-2.16,-0.96 -2.16,-2.16s0.97,-2.16 2.16,-2.16m-1.08,8.1c-0.9,0 -1.62,-0.72 -1.62,-1.62s0.72,-1.62 1.62,-1.62s1.62,0.72 1.62,1.62s-0.72,1.62 -1.62,1.62m1.08,10.07l0,-0.89l-2.16,0l0,0.89c-1.25,-0.45 -2.16,-1.64 -2.16,-3.05c0,-1.79 1.45,-3.24 3.24,-3.24s3.24,1.45 3.24,3.24c0,1.4 -0.91,2.59 -2.16,3.05m1.08,-10.61c0,-1.19 0.97,-2.16 2.16,-2.16s2.16,0.97 2.16,2.16s-0.96,2.16 -2.16,2.16s-2.16,-0.96 -2.16,-2.16m7.56,10.61l0,-0.89l-2.16,0l0,0.89c-1.25,-0.45 -2.16,-1.64 -2.16,-3.05c0,-1.79 1.45,-3.24 3.24,-3.24s3.24,1.45 3.24,3.24c0,1.4 -0.91,2.59 -2.16,3.05m-2.7,-16.02c0,-0.3 0.24,-0.54 0.54,-0.54s0.54,0.24 0.54,0.54s-0.24,0.54 -0.54,0.54s-0.54,-0.24 -0.54,-0.54m-6.48,0c0,-0.3 0.24,-0.54 0.54,-0.54s0.54,0.24 0.54,0.54s-0.24,0.54 -0.54,0.54s-0.54,-0.24 -0.54,-0.54m0.54,12.97c0,0.59 -0.49,1.08 -1.08,1.08s-1.08,-0.49 -1.08,-1.08s0.49,-1.08 1.08,-1.08s1.08,0.49 1.08,1.08m8.65,0c0,0.59 -0.49,1.08 -1.08,1.08s-1.08,-0.49 -1.08,-1.08s0.49,-1.08 1.08,-1.08s1.08,0.49 1.08,1.08m-4.86,-7.56c0,0.3 -0.24,0.54 -0.54,0.54s-0.54,-0.24 -0.54,-0.54s0.24,-0.54 0.54,-0.54s0.54,0.24 0.54,0.54z" id="svg_1"/>
 </g>
</svg>