<?xml version="1.0"?>
<svg width="24" height="24" xmlns="http://www.w3.org/2000/svg" xmlns:svg="http://www.w3.org/2000/svg">
 <g class="layer">
  <title>Layer 1</title>
  <path d="m7.2,10.25c0.99,0 1.79,0.8 1.79,1.79s-0.8,1.79 -1.79,1.79s-1.79,-0.8 -1.79,-1.79s0.8,-1.79 1.79,-1.79m0,-1.79c-1.98,0 -3.57,1.6 -3.57,3.57s1.6,3.57 3.57,3.57s3.57,-1.6 3.57,-3.57s-1.6,-3.57 -3.57,-3.57m9.53,1.79c0.99,0 1.79,0.8 1.79,1.79s-0.8,1.79 -1.79,1.79s-1.79,-0.8 -1.79,-1.79s0.8,-1.79 1.79,-1.79m0,-1.79c-1.98,0 -3.57,1.6 -3.57,3.57s1.6,3.57 3.57,3.57s3.57,-1.6 3.57,-3.57s-1.6,-3.57 -3.57,-3.57m-2.24,-0.7l-1.68,-1.68l1.68,-1.68l-0.85,-0.85l-1.68,1.68l-1.68,-1.68l-0.85,0.85l1.68,1.68l-1.68,1.68l0.85,0.85l1.68,-1.68l1.68,1.68l0.85,-0.85zm0,11.92l-1.68,-1.68l1.68,-1.68l-0.85,-0.85l-1.68,1.68l-1.68,-1.68l-0.85,0.85l1.68,1.68l-1.68,1.68l0.85,0.85l1.68,-1.68l1.68,1.68l0.85,-0.85zm6.7,-15.18l0.91,-0.88l-1.7,-1.7l-0.88,0.91c-2.06,-1.68 -4.68,-2.69 -7.54,-2.69s-5.48,1.01 -7.54,2.69l-0.88,-0.91l-1.7,1.7l0.91,0.88c-1.68,2.06 -2.69,4.68 -2.69,7.54c0,6.55 5.36,11.92 11.92,11.92s11.92,-5.36 11.92,-11.92c0,-2.86 -1.01,-5.48 -2.69,-7.54m-9.22,17.08c-5.25,0 -9.53,-4.28 -9.53,-9.53s4.28,-9.53 9.53,-9.53s9.53,4.28 9.53,9.53s-4.28,9.53 -9.53,9.53z" id="svg_1"/>
 </g>
</svg>