<?xml version="1.0"?>
<svg width="24.000000000000004" height="24.000000000000004" xmlns="http://www.w3.org/2000/svg" xmlns:svg="http://www.w3.org/2000/svg">
 <g class="layer">
  <title>Layer 1</title>
  <path d="m5.29,10.72c0,0.42 -0.33,0.75 -0.75,0.75s-0.75,-0.33 -0.75,-0.75s0.33,-0.75 0.75,-0.75s0.75,0.33 0.75,0.75m2.98,5.22c-0.42,0 -0.75,0.33 -0.75,0.75s0.33,0.75 0.75,0.75s0.75,-0.33 0.75,-0.75s-0.33,-0.75 -0.75,-0.75m0,-9.69c0.42,0 0.75,-0.33 0.75,-0.75s-0.33,-0.75 -0.75,-0.75s-0.75,0.33 -0.75,0.75s0.33,0.75 0.75,0.75m7.45,0c0.42,0 0.75,-0.33 0.75,-0.75s-0.33,-0.75 -0.75,-0.75s-0.75,0.33 -0.75,0.75s0.33,0.75 0.75,0.75m-3.73,3.73c-0.42,0 -0.75,0.33 -0.75,0.75s0.33,0.75 0.75,0.75s0.75,-0.33 0.75,-0.75s-0.33,-0.75 -0.75,-0.75m11.92,0.75c0,6.59 -5.33,11.92 -11.92,11.92s-11.92,-5.33 -11.92,-11.92c0,-3.56 1.58,-6.75 4.05,-8.94l15.74,0c2.47,2.19 4.05,5.38 4.05,8.94m-10.43,-5.22c0,1.24 1,2.24 2.24,2.24s2.24,-1 2.24,-2.24s-1,-2.24 -2.24,-2.24s-2.24,1 -2.24,2.24m-7.45,0c0,1.24 1,2.24 2.24,2.24s2.24,-1 2.24,-2.24s-1,-2.24 -2.24,-2.24s-2.24,1 -2.24,2.24m-1.49,8.2c1.65,0 2.98,-1.33 2.98,-2.98c0,-1.64 -1.33,-2.98 -2.98,-2.98s-2.98,1.34 -2.98,2.98c0,1.65 1.34,2.98 2.98,2.98m6.71,2.98c0,-1.64 -1.33,-2.98 -2.98,-2.98s-2.98,1.34 -2.98,2.98c0,1.65 1.34,2.98 2.98,2.98s2.98,-1.33 2.98,-2.98m0.75,-2.98c1.65,0 2.98,-1.33 2.98,-2.98c0,-1.64 -1.33,-2.98 -2.98,-2.98s-2.98,1.34 -2.98,2.98c0,1.65 1.34,2.98 2.98,2.98m6.71,2.98c0,-1.64 -1.33,-2.98 -2.98,-2.98s-2.98,1.34 -2.98,2.98c0,1.65 1.34,2.98 2.98,2.98s2.98,-1.33 2.98,-2.98m3.73,-5.96c0,-1.64 -1.33,-2.98 -2.98,-2.98s-2.98,1.34 -2.98,2.98c0,1.65 1.34,2.98 2.98,2.98s2.98,-1.33 2.98,-2.98m-2.98,-0.75c-0.42,0 -0.75,0.33 -0.75,0.75s0.33,0.75 0.75,0.75s0.75,-0.33 0.75,-0.75s-0.33,-0.75 -0.75,-0.75m-3.73,5.96c-0.42,0 -0.75,0.33 -0.75,0.75s0.33,0.75 0.75,0.75s0.75,-0.33 0.75,-0.75s-0.33,-0.75 -0.75,-0.75z" id="svg_1"/>
 </g>
</svg>